<svg height="512.00002pt" viewBox="0 0 512.00002 512.00002" width="512.00002pt" xmlns="http://www.w3.org/2000/svg"><path d="m358.402344 124.84375h30.414062v80.734375h-30.414062zm0 0" fill="#ccc"/><path d="m216.015625 96.851562c0 49.289063-39.957031 89.246094-89.246094 89.246094-49.292969 0-89.25-39.957031-89.25-89.246094 0-49.289062 39.957031-89.246093 89.25-89.246093 49.289063 0 89.246094 39.957031 89.246094 89.246093zm0 0" fill="#ffbe1d"/><path d="m189.726562 96.851562c0 34.769532-28.1875 62.960938-62.957031 62.960938-34.773437 0-62.960937-28.191406-62.960937-62.960938 0-34.773437 28.1875-62.960937 62.960937-62.960937 34.769531 0 62.957031 28.1875 62.957031 62.960937zm0 0" fill="#ffe14d"/><path d="m199.226562 232.808594v29.550781h-134.648437c-15.789063 0-28.585937 12.796875-28.585937 28.585937v168.101563h440.019531v-216.96875 11.15625-20.425781c0-23.433594-19-42.433594-42.4375-42.433594h-191.914063c-23.433594 0-42.433594 19-42.433594 42.433594zm0 0" fill="#e6e6e6"/><path d="m215.957031 232.808594c0-23.433594 18.996094-42.433594 42.433594-42.433594h-16.730469c-23.433594 0-42.433594 19-42.433594 42.433594v29.550781h16.730469zm0 0" fill="#ccc"/><path d="m81.304688 262.359375h-16.726563c-15.789063 0-28.585937 12.796875-28.585937 28.585937v168.101563h16.726562v-168.101563c0-15.789062 12.800781-28.585937 28.585938-28.585937zm0 0" fill="#ccc"/><path d="m504.398438 461.011719v21.140625c0 12.285156-9.964844 22.242187-22.253907 22.242187h-452.292969c-12.289062 0-22.246093-9.957031-22.246093-22.242187v-21.140625c0-12.289063 9.957031-22.242188 22.246093-22.242188h452.292969c12.289063 0 22.253907 9.953125 22.253907 22.242188zm0 0" fill="#ccc"/><path d="m504.398438 461.011719v21.140625c0 12.285156-9.964844 22.242187-22.253907 22.242187h-417.152343c-12.289063 0-22.253907-9.957031-22.253907-22.242187v-21.140625c0-12.289063 9.964844-22.242188 22.253907-22.242188h417.152343c12.289063 0 22.253907 9.953125 22.253907 22.242188zm0 0" fill="#e6e6e6"/><path d="m224.574219 239.039062c0-12.878906 10.4375-23.316406 23.316406-23.316406h179.453125c12.878906 0 23.320312 10.4375 23.320312 23.316406 0 12.878907-10.441406 23.320313-23.320312 23.320313h-179.453125c-12.875 0-23.316406-10.441406-23.316406-23.320313zm0 0" fill="#c4e2f2"/><path d="m76.546875 304.9375h97.332031v97.332031h-97.332031zm0 0" fill="#fff"/><path d="m312.421875 30.554688h122.375c14.359375 0 26.003906 11.640624 26.003906 26v57.496093c0 14.359375-11.640625 26-26.003906 26h-122.375c-14.359375 0-26.003906-11.640625-26.003906-26v-57.496093c0-14.359376 11.644531-26 26.003906-26zm0 0" fill="#c4e2f2"/><path d="m434.796875 30.554688h-25.851563c14.359376 0 26.003907 11.640624 26.003907 26v57.492187c0 14.363281-11.644531 26.003906-26.003907 26.003906h25.851563c14.359375 0 26.003906-11.640625 26.003906-26.003906v-57.492187c0-14.359376-11.640625-26-26.003906-26zm0 0" fill="#83b2c6"/><g fill="#3c3f4d"><path d="m267.15625 339.410156h-25.347656c-9.519532 0-17.234375-7.71875-17.234375-17.238281 0-9.515625 7.714843-17.234375 17.234375-17.234375h25.347656c9.519531 0 17.234375 7.71875 17.234375 17.234375 0 9.519531-7.714844 17.238281-17.234375 17.238281zm0 0"/><path d="m345.222656 339.410156h-25.347656c-9.519531 0-17.234375-7.71875-17.234375-17.238281 0-9.515625 7.714844-17.234375 17.234375-17.234375h25.347656c9.519532 0 17.234375 7.71875 17.234375 17.234375 0 9.519531-7.714843 17.238281-17.234375 17.238281zm0 0"/><path d="m423.289062 339.410156h-25.34375c-9.519531 0-17.238281-7.71875-17.238281-17.238281 0-9.515625 7.71875-17.234375 17.238281-17.234375h25.34375c9.519532 0 17.238282 7.71875 17.238282 17.234375 0 9.519531-7.71875 17.238281-17.238282 17.238281zm0 0"/><path d="m267.15625 396.1875h-25.347656c-9.519532 0-17.234375-7.71875-17.234375-17.238281s7.714843-17.234375 17.234375-17.234375h25.347656c9.519531 0 17.234375 7.714844 17.234375 17.234375s-7.714844 17.238281-17.234375 17.238281zm0 0"/><path d="m345.222656 396.1875h-25.347656c-9.519531 0-17.234375-7.71875-17.234375-17.238281s7.714844-17.234375 17.234375-17.234375h25.347656c9.519532 0 17.234375 7.714844 17.234375 17.234375s-7.714843 17.238281-17.234375 17.238281zm0 0"/><path d="m423.289062 396.1875h-25.34375c-9.519531 0-17.238281-7.71875-17.238281-17.238281s7.71875-17.234375 17.238281-17.234375h25.34375c9.519532 0 17.238282 7.714844 17.238282 17.234375s-7.71875 17.238281-17.238282 17.238281zm0 0"/></g><path d="m126.769531 26.289062c-38.910156 0-70.566406 31.652344-70.566406 70.5625 0 38.910157 31.65625 70.5625 70.566406 70.5625 38.90625 0 70.5625-31.652343 70.5625-70.5625 0-38.910156-31.65625-70.5625-70.5625-70.5625zm0 125.917969c-30.523437 0-55.355469-24.832031-55.355469-55.355469 0-30.523437 24.832032-55.355468 55.355469-55.355468 30.523438 0 55.355469 24.832031 55.355469 55.355468 0 30.523438-24.832031 55.355469-55.355469 55.355469zm0 0"/><path d="m126.769531 193.703125c53.402344 0 96.851563-43.449219 96.851563-96.851563 0-21.6875-7.007813-42.191406-20.265625-59.292968-2.574219-3.316406-7.351563-3.921875-10.667969-1.347656-3.320312 2.570312-3.925781 7.347656-1.351562 10.664062 11.171874 14.410156 17.078124 31.691406 17.078124 49.976562 0 45.019532-36.625 81.644532-81.644531 81.644532s-81.644531-36.625-81.644531-81.644532c0-45.019531 36.625-81.644531 81.644531-81.644531 17.683594 0 34.507813 5.558594 48.652344 16.074219 3.371094 2.507812 8.132813 1.804688 10.640625-1.5625 2.503906-3.371094 1.804688-8.132812-1.566406-10.640625-16.789063-12.480469-36.75-19.078125-57.726563-19.078125-53.40625 0-96.851562 43.449219-96.851562 96.851562 0 53.402344 43.445312 96.851563 96.851562 96.851563zm0 0"/><path d="m133.402344 89.5625v-18.730469c3.125.492188 5.222656 1.558594 6.921875 2.417969 1.457031.738281 2.613281 1.324219 3.90625 1.324219 4.125 0 5.914062-5.046875 5.914062-7.625 0-5.492188-8.601562-8.039063-16.742187-8.597657v-1.132812c0-2.878906-2.339844-5.21875-5.21875-5.21875s-5.21875 2.339844-5.21875 5.21875v1.460938c-12.441406 2.082031-19.566406 9.679687-19.566406 20.871093 0 13.757813 11.253906 18.082031 19.566406 21.207031v21.023438c-4.582032-.871094-7.566406-3.1875-9.972656-5.054688-1.960938-1.523437-3.507813-2.722656-5.285157-2.722656-3.554687 0-6.230469 4.6875-6.230469 7.726563 0 5.742187 8.8125 12.625 21.488282 13.417969v.519531c0 1.609375.742187 3.105469 2.019531 4.09375.753906.714843 1.855469 1.125 3.011719 1.125h.1875c2.878906 0 5.21875-2.34375 5.21875-5.21875v-1.105469c11.867187-2.535156 18.664062-10.746094 18.664062-22.550781-.003906-13.359375-8.949218-18.699219-18.664062-22.449219zm5.125 23.839844c0 3.59375-1.769532 6.242187-5.125 7.683594v-15.894532c3.539062 2.09375 5.125 4.644532 5.125 8.210938zm-15.5625-41.949219v14.132813c-3.179688-1.457032-6.035156-3.40625-6.035156-7.421876 0-3.222656 2.085937-5.539062 6.035156-6.710937zm0 0"/><path d="m483.613281 431.203125v-198.394531c0-27.589844-22.449219-50.039063-50.039062-50.039063h-37.152344v-35.113281h38.375c18.53125 0 33.605469-15.078125 33.605469-33.609375v-57.492187c0-18.53125-15.074219-33.605469-33.605469-33.605469h-122.375c-18.53125 0-33.605469 15.078125-33.605469 33.605469v57.492187c0 18.53125 15.074219 33.609375 33.605469 33.609375h38.375v35.113281h-109.136719c-27.589844 0-50.039062 22.449219-50.039062 50.039063v21.945312h-93.171875c-4.199219 0-7.605469 3.40625-7.605469 7.605469s3.40625 7.605469 7.605469 7.605469h100.777343c4.199219 0 7.605469-3.40625 7.605469-7.605469v-29.550781c0-19.207032 15.625-34.828125 34.828125-34.828125h191.914063c19.207031 0 34.832031 15.621093 34.832031 34.828125v198.355468h-424.8125v-140.21875c0-11.570312 9.414062-20.980468 20.984375-20.980468h8.519531c4.199219 0 7.605469-3.40625 7.605469-7.605469s-3.40625-7.605469-7.605469-7.605469h-8.519531c-19.957031 0-36.191406 16.234375-36.191406 36.191406v140.253907c-15.78125.769531-28.386719 13.847656-28.386719 29.816406v21.132813c0 16.460937 13.390625 29.851562 29.851562 29.851562h400.113282c4.199218 0 7.601562-3.40625 7.601562-7.605469s-3.402344-7.601562-7.601562-7.601562h-400.113282c-8.074218 0-14.644531-6.570313-14.644531-14.644531v-21.132813c0-8.074219 6.570313-14.644531 14.644531-14.644531h452.296876c8.074218 0 14.644531 6.570312 14.644531 14.644531v21.132813c0 8.074218-6.570313 14.644531-14.644531 14.644531h-26.835938c-4.199219 0-7.605469 3.402343-7.605469 7.601562s3.40625 7.605469 7.605469 7.605469h26.835938c16.460937 0 29.851562-13.390625 29.851562-29.851562v-21.132813c0-15.96875-12.605469-29.046875-28.386719-29.8125zm-189.589843-317.15625v-57.492187c0-10.144532 8.253906-18.398438 18.398437-18.398438h122.375c10.144531 0 18.398437 8.253906 18.398437 18.398438v57.492187c0 10.144531-8.253906 18.398437-18.398437 18.398437h-122.375c-10.144531 0-18.398437-8.253906-18.398437-18.398437zm71.984374 68.722656v-35.113281h15.207032v35.113281zm0 0"/><path d="m458.265625 239.039062c0-17.050781-13.871094-30.921874-30.921875-30.921874h-179.453125c-17.050781 0-30.921875 13.871093-30.921875 30.921874 0 17.050782 13.871094 30.925782 30.921875 30.925782h179.453125c17.050781 0 30.921875-13.875 30.921875-30.925782zm-30.921875 15.714844h-179.453125c-8.664063 0-15.714844-7.046875-15.714844-15.714844 0-8.664062 7.050781-15.714843 15.714844-15.714843h179.453125c8.664062 0 15.714844 7.050781 15.714844 15.714843 0 8.667969-7.050782 15.714844-15.714844 15.714844zm0 0"/><path d="m76.546875 409.871094h97.332031c4.199219 0 7.605469-3.402344 7.605469-7.601563v-89.726562h4.5625c4.199219 0 7.601563-3.40625 7.601563-7.605469s-3.402344-7.601562-7.601563-7.601562h-121.664063c-4.199218 0-7.605468 3.402343-7.605468 7.601562s3.40625 7.605469 7.605468 7.605469h4.5625v89.726562c0 4.199219 3.402344 7.601563 7.601563 7.601563zm89.726563-97.328125v82.121093h-82.121094v-82.121093zm0 0"/><path d="m106.964844 348.671875h36.5c4.199218 0 7.601562-3.40625 7.601562-7.605469 0-4.199218-3.402344-7.605468-7.601562-7.605468h-36.5c-4.199219 0-7.605469 3.40625-7.605469 7.605468 0 4.199219 3.40625 7.605469 7.605469 7.605469zm0 0"/><path d="m106.964844 373.746094h36.5c4.199218 0 7.601562-3.40625 7.601562-7.605469s-3.402344-7.605469-7.601562-7.605469h-36.5c-4.199219 0-7.605469 3.40625-7.605469 7.605469s3.40625 7.605469 7.605469 7.605469zm0 0"/><path d="m326.972656 80.367188h99.359375c4.199219 0 7.605469-3.402344 7.605469-7.601563s-3.40625-7.605469-7.605469-7.605469h-99.359375c-4.203125 0-7.605468 3.40625-7.605468 7.605469s3.402343 7.601563 7.605468 7.601563zm0 0"/><path d="m371.074219 97.839844c0-4.199219-3.402344-7.605469-7.605469-7.605469h-36.496094c-4.203125 0-7.605468 3.40625-7.605468 7.605469 0 4.199218 3.402343 7.601562 7.605468 7.601562h36.496094c4.203125 0 7.605469-3.402344 7.605469-7.601562zm0 0"/><path d="m119.164062 209.636719v29.183593c0 4.203126 3.40625 7.605469 7.605469 7.605469s7.601563-3.402343 7.601563-7.605469v-29.183593c0-4.199219-3.402344-7.605469-7.601563-7.605469s-7.605469 3.40625-7.605469 7.605469zm0 0"/><path d="m241.808594 347.011719h25.347656c13.695312 0 24.839844-11.140625 24.839844-24.839844 0-13.695313-11.144532-24.835937-24.839844-24.835937h-25.347656c-13.695313 0-24.839844 11.140624-24.839844 24.835937 0 13.699219 11.144531 24.839844 24.839844 24.839844zm0-34.46875h25.347656c5.308594 0 9.632812 4.320312 9.632812 9.628906 0 5.3125-4.324218 9.632813-9.632812 9.632813h-25.347656c-5.308594 0-9.632813-4.320313-9.632813-9.632813 0-5.308594 4.324219-9.628906 9.632813-9.628906zm0 0"/><path d="m345.222656 297.335938h-25.347656c-13.695312 0-24.839844 11.140624-24.839844 24.835937 0 13.699219 11.144532 24.839844 24.839844 24.839844h25.347656c13.699219 0 24.839844-11.140625 24.839844-24.839844 0-13.695313-11.140625-24.835937-24.839844-24.835937zm0 34.46875h-25.347656c-5.308594 0-9.628906-4.320313-9.628906-9.632813 0-5.308594 4.320312-9.628906 9.628906-9.628906h25.347656c5.3125 0 9.632813 4.320312 9.632813 9.628906 0 5.3125-4.320313 9.632813-9.632813 9.632813zm0 0"/><path d="m423.289062 297.335938h-25.34375c-13.699218 0-24.839843 11.140624-24.839843 24.835937 0 13.699219 11.140625 24.839844 24.839843 24.839844h25.34375c13.699219 0 24.839844-11.140625 24.839844-24.839844 0-13.695313-11.140625-24.835937-24.839844-24.835937zm0 34.46875h-25.34375c-5.3125 0-9.632812-4.320313-9.632812-9.632813 0-5.308594 4.320312-9.628906 9.632812-9.628906h25.34375c5.3125 0 9.632813 4.320312 9.632813 9.628906 0 5.3125-4.320313 9.632813-9.632813 9.632813zm0 0"/><path d="m241.808594 403.789062h25.347656c13.695312 0 24.839844-11.144531 24.839844-24.839843 0-13.695313-11.144532-24.839844-24.839844-24.839844h-25.347656c-13.695313 0-24.839844 11.144531-24.839844 24.839844 0 13.695312 11.144531 24.839843 24.839844 24.839843zm0-34.472656h25.347656c5.308594 0 9.632812 4.324219 9.632812 9.632813 0 5.3125-4.324218 9.632812-9.632812 9.632812h-25.347656c-5.308594 0-9.632813-4.320312-9.632813-9.632812 0-5.308594 4.324219-9.632813 9.632813-9.632813zm0 0"/><path d="m345.222656 354.109375h-25.347656c-13.695312 0-24.839844 11.144531-24.839844 24.839844 0 13.695312 11.144532 24.839843 24.839844 24.839843h25.347656c13.699219 0 24.839844-11.144531 24.839844-24.839843 0-13.695313-11.140625-24.839844-24.839844-24.839844zm0 34.472656h-25.347656c-5.308594 0-9.628906-4.320312-9.628906-9.632812 0-5.308594 4.320312-9.632813 9.628906-9.632813h25.347656c5.3125 0 9.632813 4.324219 9.632813 9.632813 0 5.3125-4.320313 9.632812-9.632813 9.632812zm0 0"/><path d="m423.289062 354.109375h-25.34375c-13.699218 0-24.839843 11.144531-24.839843 24.839844 0 13.695312 11.140625 24.839843 24.839843 24.839843h25.34375c13.699219 0 24.839844-11.144531 24.839844-24.839843 0-13.695313-11.140625-24.839844-24.839844-24.839844zm0 34.472656h-25.34375c-5.3125 0-9.632812-4.320312-9.632812-9.632812 0-5.308594 4.320312-9.632813 9.632812-9.632813h25.34375c5.3125 0 9.632813 4.324219 9.632813 9.632813 0 5.3125-4.320313 9.632812-9.632813 9.632812zm0 0"/></svg>